<?xml version="1.0" standalone="no"?>
<!DOCTYPE svg PUBLIC "-//W3C//DTD SVG 1.1//EN" "http://www.w3.org/Graphics/SVG/1.1/DTD/svg11.dtd">
<svg xmlns="http://www.w3.org/2000/svg">
<defs >
<font id="Exo2" horiz-adv-x="559" ><font-face
    font-family="Exo 2 ExtraBold"
    units-per-em="1000"
    panose-1="0 0 0 0 0 0 0 0 0 0"
    ascent="999"
    descent="-201"
    alphabetic="0" />
<glyph unicode=" " glyph-name="space" horiz-adv-x="213" />
<glyph unicode="!" glyph-name="exclam" horiz-adv-x="315" d="M304 695L269 445L219 223H77L89 445L124 695H304ZM154 170Q185 170 202 154T214 104L208 59Q204 29 188 15T138 0H102Q34 0 42 66L48 111Q56 170 118 170H154Z" />
<glyph unicode="&quot;" glyph-name="quotedbl" horiz-adv-x="384" d="M397 690L355 465H248L270 690H397ZM225 690L183 465H77L98 690H225Z" />
<glyph unicode="#" glyph-name="numbersign" horiz-adv-x="729" d="M675 690L458 0H321L538 690H675ZM661 296L625 189H12L48 296H661ZM424 690L207 0H70L287 690H424ZM735 521L699 414H86L122 521H735Z" />
<glyph unicode="$" glyph-name="dollar" horiz-adv-x="579" d="M345 704Q399 703 461 696T577 671L560 550Q530 551 492 551T413 552T332 553Q312 553 298 552T274 546T259 532T251 508Q249 495 251 485T265 467T298 448L414 394Q468 368 496 339T532 273T534
184Q525 106 496 63T409 3T258 -14Q218 -14 150 -8T7 18L25 149Q82 148 127 147T205 145T251 144Q285 144 305 148T335 162T348 191Q350 207 348 216T336 232T310 247L185 306Q131 333 103 364T68 433T65 514Q72 571 92 608T146 665T230 695T345 704ZM267 360H319L210
-114H158L267 360ZM446 791L337 360H285L394 791H446Z" />
<glyph unicode="%" glyph-name="percent" horiz-adv-x="913" d="M767 690L274 0H159L651 690H767ZM247 607Q227 607 217 599T200 565T187 491Q181 448 181 426T189 397T216 389Q236 389 247 397T264 431T276 505Q281 548 281 570T273 599T247 607ZM249 704Q314
704 353 684T405 618T408 491Q397 415 376 372T315 310T212 292Q148 292 110 312T58 379T55 505Q66 582 87 625T148 686T249 704ZM711 302Q691 302 681 294T664 260T651 186Q645 142 645 120T653 91T680 83Q700 83 711 91T728 125T741 200Q746 243 746 265T737
294T711 302ZM713 398Q778 398 817 379T870 313T872 186Q861 110 840 66T779 5T676 -13Q612 -13 574 7T522 73T520 200Q530 276 551 319T612 380T713 398Z" />
<glyph unicode="&amp;" glyph-name="ampersand" horiz-adv-x="758" d="M375 703Q412 703 456 699T545 680L516 557Q487 563 451 566T380 570Q345 570 324 565T292 543T276 492Q272 461 277 444T298 420T341 413H754L737 296H324Q295 296 274 289T241 263T223 207Q220
185 223 170T236 147T262 135T300 131Q356 131 400 151T473 230Q498 275 509 343T522 506H672Q672 412 660 328T615 177Q587 118 541 76T426 10T259 -13Q168 -13 113 8T36 72T22 183Q29 231 47 268T99 329T184 355L185 361Q149 364 126 387T94 447T93 527Q106 604
144 641T241 691T375 703Z" />
<glyph unicode="&apos;" glyph-name="quotesingle" horiz-adv-x="213" d="M225 690L183 465H77L98 690H225Z" />
<glyph unicode="(" glyph-name="parenleft" horiz-adv-x="369" d="M399 791L421 711Q333 676 283 572T209 306Q195 207 197 128T223 -6T300 -86L277 -161Q126 -116 67 2T35 319Q64 518 150 632T399 791Z" />
<glyph unicode=")" glyph-name="parenright" horiz-adv-x="369" d="M98 787Q249 743 309 626T340 305Q312 108 226 -6T-24 -166L-45 -86Q43 -47 93 58T166 320Q180 422 178 501T153 634T76 711L98 787Z" />
<glyph unicode="*" glyph-name="asterisk" horiz-adv-x="455" d="M335 692L295 520L387 391L305 333L255 453L172 333L97 391L226 519L234 692H335ZM102 619L212 568L209 525L182 500L63 525L102 619ZM439 618L458 523L335 497L313 524L322 567L439 618Z" />
<glyph unicode="+" glyph-name="plus" horiz-adv-x="526" d="M364 532L299 73H166L231 532H364ZM506 370L486 235H24L44 370H506Z" />
<glyph unicode="," glyph-name="comma" horiz-adv-x="250" d="M123 170Q158 170 172 155T181 104L172 40Q168 7 156 -29T127 -99T90 -158L15 -130Q29 -97 38 -64T55 4Q27 3 17 17T9 59L17 108Q22 144 39 157T90 170H123Z" />
<glyph unicode="-" glyph-name="hyphen" horiz-adv-x="397" d="M348 311L333 201H39L55 311H348Z" />
<glyph unicode="." glyph-name="period" horiz-adv-x="248" d="M123 170Q154 170 170 154T183 104L176 59Q173 29 157 15T107 0H70Q1 0 9 66L15 111Q24 170 85 170H123Z" />
<glyph unicode="/" glyph-name="slash" horiz-adv-x="580" d="M616 690L115 -76H-32L469 690H616Z" />
<glyph unicode="0" glyph-name="zero" horiz-adv-x="644" d="M293 -13Q216 -13 159 7T70 77T40 211Q41 292 48 366T75 501T130 608T223 678T364 703Q444 703 500 683T587 614T618 481Q618 401 611 328T585 192T530 84T436 13T293 -13ZM309 128Q342 128 364 146T400
195T420 269T430 360T435 461Q436 515 415 538T346 562Q314 562 293 544T259 495T238 421T228 329T223 227Q222 175 242 152T309 128Z" />
<glyph unicode="1" glyph-name="one" horiz-adv-x="452" d="M427 690L330 0H143L210 462Q213 483 217 503T228 544L63 505L48 619L246 690H427Z" />
<glyph unicode="2" glyph-name="two" horiz-adv-x="583" d="M328 702Q403 702 455 691T535 648T562 559Q562 509 547 469T502 392T432 320L237 148Q263 155 287 157T336 160H530L509 0H-6L9 100Q12 122 18 140T39 174L220 335Q258 371 293 403T351 465T373 519Q373
530 366 536T346 544T311 546Q273 546 241 546T173 544T89 541L92 680Q145 690 188 694T267 700T328 702Z" />
<glyph unicode="3" glyph-name="three" horiz-adv-x="566" d="M318 704Q430 704 485 673T541 560Q541 509 527 468T482 400T406 367L405 363Q466 355 492 323T518 239Q518 151 483 96T381 14T221 -14Q171 -14 113 -9T-1 6L12 138Q55 135 85 134T142 132T197 133Q264
134 300 163T336 252Q336 268 329 278T306 293T266 299L124 300L140 416H277Q327 416 346 439T365 514Q365 538 351 548T290 558Q238 558 187 558T97 557V686Q158 696 216 700T318 704Z" />
<glyph unicode="4" glyph-name="four" horiz-adv-x="643" d="M430 690L221 295Q214 282 215 276T230 270H617L602 164L528 147H87Q53 147 32 162T7 203T16 255L251 690H430ZM583 555L505 0H334L395 447L440 555H583Z" />
<glyph unicode="5" glyph-name="five" horiz-adv-x="553" d="M553 690L528 553H258L236 449L316 440Q391 431 434 405T495 341T514 260Q514 134 437 65T224 -12Q172 -15 114 -9T-4 8L20 148Q69 143 112 140T190 139Q251 143 289 167T328 252Q328 271 318 281T285
297T224 306L123 320Q95 325 79 345T69 392L127 690H553Z" />
<glyph unicode="6" glyph-name="six" horiz-adv-x="596" d="M395 702Q413 702 439 701T497 696T563 682L539 567Q511 568 490 568T444 568T378 568Q340 568 316 559T275 524T247 451T226 327Q217 263 212 223T210 161T231 131T282 122Q325 122 346 144T374 201T384
271Q385 295 369 311T315 328Q276 328 239 304T152 238L149 307Q181 359 216 391T294 438T389 454Q479 454 521 415T562 311Q559 207 533 135T445 25T277 -12Q202 -12 151 4T73 60T39 166T48 337Q65 453 93 525T164 635T264 688T395 702Z" />
<glyph unicode="7" glyph-name="seven" horiz-adv-x="539" d="M500 690Q551 690 567 664T565 595L269 0H85L318 470Q327 489 338 506T365 541H61L72 690H500Z" />
<glyph unicode="8" glyph-name="eight" horiz-adv-x="628" d="M356 703Q458 703 513 682T586 618T595 511Q590 473 576 441T535 387T465 360L463 356Q514 351 537 324T566 255T564 165Q555 102 529 63T446 5T287 -14Q178 -14 118 7T37 72T24 179Q30 224 45 263T92
327T175 356L176 360Q120 370 101 415T90 525Q98 587 124 626T206 684T356 703ZM311 299Q286 299 267 296T236 283T216 253T204 200Q200 170 205 152T230 128T289 121Q324 121 345 128T378 155T394 214Q398 241 396 257T385 283T359 295T311 299ZM354 579Q320 579
300 572T270 545T255 487Q252 459 255 444T276 423T330 417Q356 417 373 420T400 433T417 458T426 501Q431 533 427 549T406 572T354 579Z" />
<glyph unicode="9" glyph-name="nine" horiz-adv-x="597" d="M342 700Q421 700 471 683T546 626T574 516T562 343Q547 236 523 167T460 59T365 3T229 -14Q196 -14 140 -10T25 8L38 124Q68 123 94 123T151 123T219 123Q264 123 292 135T338 175T366 250T386 367Q395
431 398 470T397 531T375 559T325 567Q292 567 273 558T244 528T229 467Q225 425 228 402T244 369T284 360Q315 360 339 367T391 395T459 451L460 380Q424 322 387 290T311 246T230 234Q168 234 131 254T76 308T56 382T58 462Q66 526 82 572T130 646T213 687T342
700Z" />
<glyph unicode=":" glyph-name="colon" horiz-adv-x="266" d="M160 457Q191 457 207 441T220 391L213 346Q210 316 194 302T144 287H107Q38 287 46 353L52 398Q61 457 122 457H160ZM375 171Q406 171 422 155T435 105L428 60Q425 30 409 16T359 1H322Q253 1 261
67L267 112Q276 171 337 171H375Z" />
<glyph unicode=";" glyph-name="semicolon" horiz-adv-x="265" d="M171 457Q202 457 218 441T231 391L224 346Q221 316 205 302T155 287H118Q49 287 57 353L63 398Q72 457 133 457H171ZM132 170Q167 170 181 155T190 104L181 40Q177 7 165 -29T136 -99T99 -158L24
-130Q38 -97 47 -64T64 4Q36 3 26 17T18 59L26 108Q31 144 48 157T99 170H132Z" />
<glyph unicode="&lt;" glyph-name="less" horiz-adv-x="508" d="M492 533L473 387L186 303L447 212L429 72L23 232L42 372L492 533Z" />
<glyph unicode="=" glyph-name="equal" horiz-adv-x="574" d="M547 471L528 338H59L78 471H547ZM518 259L498 126H29L49 259H518Z" />
<glyph unicode="&gt;" glyph-name="greater" horiz-adv-x="506" d="M82 533L486 372L466 232L19 71L38 216L323 308L65 401L82 533Z" />
<glyph unicode="?" glyph-name="question" horiz-adv-x="531" d="M330 712Q445 712 497 672T539 550Q533 507 513 477T463 421T405 369T350 308T312 224H168Q173 272 189 310T228 379T273 434T313 479T338 519Q348 549 336 558T288 567Q234 567 201 567T140 567T77
565L78 686Q109 692 134 696T186 704T247 710T330 712ZM249 170Q281 170 297 154T310 104L304 59Q300 29 284 15T235 0H198Q130 0 137 66L144 110Q152 170 213 170H249Z" />
<glyph unicode="@" glyph-name="at" horiz-adv-x="811" d="M428 652Q547 653 621 642T732 597T776 496T767 319Q754 224 739 161T695 59T618 4T490 -13Q435 -13 401 3T350 44T327 99T326 156L371 427H533L488 146Q485 126 491 117T512 108Q537 108 551 117T574
149T591 216T611 326Q621 385 622 423T616 483T585 513T524 525T426 528H85L94 643Q148 646 205 647T318 650T428 652ZM279 454Q342 454 403 447T533 427L461 337Q394 339 358 339T301 340Q279 340 263 337T235 323T214 288T197 224Q189 179 190 157T203 128T232
121Q269 121 299 157T372 270L398 218Q376 159 347 107T275 21T172 -12Q130 -12 100 2T52 47T30 123T35 231Q47 304 68 349T120 416T190 446T279 454Z" />
<glyph unicode="A" glyph-name="A" horiz-adv-x="665" d="M472 690Q494 690 511 675T532 638L630 0H442L392 478Q390 497 390 515T389 551H361Q357 536 352 517T339 480L150 0H-45L233 645Q241 667 258 678T299 690H472ZM514 301L498 162H138L155 301H514Z" />
<glyph unicode="B" glyph-name="B" horiz-adv-x="648" d="M385 698Q474 698 528 682T604 625T616 511Q606 440 576 404T475 361L474 355Q555 348 582 299T598 165Q589 96 560 58T476 6T338 -8Q264 -8 210 -8T111 -5T19 0L46 128Q71 127 141 126T303 125Q340 125
362 132T395 159T411 216Q416 250 412 267T391 292T341 299H75L91 416H345Q377 416 395 422T422 447T437 499Q440 525 436 539T418 559T378 565Q317 565 271 565T189 565T119 562L116 690Q157 694 196 695T281 697T385 698ZM299 690L202 0H19L116 690H299Z" />
<glyph unicode="C" glyph-name="C" horiz-adv-x="595" d="M389 702Q440 702 477 699T545 691T607 676L585 539Q550 541 520 541T458 542T380 543Q348 543 326 536T289 507T262 445T243 338Q232 262 233 221T254 163T317 147Q390 147 438 149T533 156L540 18Q487
2 435 -5T309 -12Q198 -12 134 23T49 138T47 352Q62 455 86 523T149 630T247 685T389 702Z" />
<glyph unicode="D" glyph-name="D" horiz-adv-x="691" d="M384 700Q495 700 562 668T654 557T659 338Q644 233 620 165T556 59T456 6T310 -10Q228 -10 157 -7T19 0L109 135Q144 132 199 131T308 129Q341 129 366 137T409 170T440 238T462 352Q471 416 472 457T464
521T434 552T378 561Q344 561 311 561T246 561T188 561L116 690Q154 693 198 695T289 699T384 700ZM303 690L206 0H19L116 690H303Z" />
<glyph unicode="E" glyph-name="E" horiz-adv-x="580" d="M260 693Q319 693 379 693T495 690T597 681L576 548H328Q301 548 289 538T272 502L228 187Q225 165 235 154T270 142H516L513 7Q466 1 411 0T298 -2T188 -3Q105 -3 67 46T38 173L90 548Q100 615 143 654T260
693ZM91 419H520L504 292H71L91 419Z" />
<glyph unicode="F" glyph-name="F" horiz-adv-x="560" d="M263 693Q348 693 436 692T592 680L571 548H335Q305 548 292 538T275 502L205 0H17L93 547Q103 616 149 654T263 693ZM92 406H513L497 279H73L92 406Z" />
<glyph unicode="G" glyph-name="G" horiz-adv-x="660" d="M414 704Q454 704 492 701T567 692T638 676L616 541Q581 542 547 542T479 543T405 544Q366 544 339 535T294 502T264 439T244 338Q233 262 235 221T256 163T311 147Q344 147 365 156T404 178T436 203L466
124Q452 106 430 83T379 38T311 1T226 -14Q157 -14 111 21T48 136T48 352Q63 459 90 528T162 635T268 689T414 704ZM631 398L575 0H438L429 107L416 140L452 398H631Z" />
<glyph unicode="H" glyph-name="H" horiz-adv-x="696" d="M304 690L207 0H19L116 690H304ZM479 435L460 298H242L260 435H479ZM692 690L595 0H407L504 690H692Z" />
<glyph unicode="I" glyph-name="I" horiz-adv-x="308" d="M304 690L207 0H19L116 690H304Z" />
<glyph unicode="J" glyph-name="J" horiz-adv-x="382" d="M380 690L302 128Q292 59 246 23T126 -13Q103 -13 75 -10T20 -2T-21 12L10 129H49Q83 129 99 141T119 177L193 690H380Z" />
<glyph unicode="K" glyph-name="K" horiz-adv-x="651" d="M701 690L497 402Q482 380 465 367T431 347L430 343Q443 336 457 317T480 277L611 0H408L262 355L491 690H701ZM305 690L277 493Q273 459 262 424T231 355Q240 325 242 291T240 227L208 0H19L116 690H305ZM329
421L312 296H194L211 421H329Z" />
<glyph unicode="L" glyph-name="L" horiz-adv-x="542" d="M301 690L229 195Q227 172 235 161T269 150H502L499 8Q431 0 348 -1T182 -3Q134 -3 100 16T48 71T38 154L113 690H301Z" />
<glyph unicode="M" glyph-name="M" horiz-adv-x="931" d="M842 690Q875 690 891 672T905 620L842 0H672L728 548H713L572 157Q563 128 545 116T495 103H392Q362 103 345 119T324 164L290 548H273L178 0H7L120 627Q126 660 142 675T190 690H354Q384 690 401 674T420
628L446 321Q449 296 449 271T447 220H459Q466 248 473 271T487 319L595 635Q603 664 622 677T671 690H842Z" />
<glyph unicode="N" glyph-name="N" horiz-adv-x="724" d="M720 690L632 62Q628 30 612 15T563 0H489Q459 0 446 15T421 59L291 353Q280 376 272 404T258 461H248Q249 431 248 402T242 341L193 0H19L107 628Q111 660 127 675T176 690H250Q279 690 292 674T317 631L444
350Q455 325 465 297T484 235H495Q493 267 493 293T498 348L547 690H720Z" />
<glyph unicode="O" glyph-name="O" horiz-adv-x="692" d="M389 704Q498 704 565 671T656 559T661 338Q647 233 621 165T555 57T455 2T316 -14Q203 -14 137 19T50 131T47 352Q62 455 87 523T153 631T251 687T389 704ZM386 561Q342 561 316 543T274 477T244 338Q231
253 233 208T257 146T321 129Q366 129 392 147T434 213T464 352Q477 437 475 482T451 544T386 561Z" />
<glyph unicode="P" glyph-name="P" horiz-adv-x="627" d="M384 700Q484 700 542 679T620 605T628 462Q616 373 587 325T504 259T362 240Q314 240 267 245T180 257T112 273T73 289L79 375Q144 375 213 375T346 375Q379 375 397 382T426 410T443 476Q448 510 444
529T425 556T379 564Q281 564 212 563T119 559L116 690Q159 695 196 697T278 699T384 700ZM303 690L206 0H19L116 690H303Z" />
<glyph unicode="Q" glyph-name="Q" horiz-adv-x="692" d="M389 704Q498 704 565 671T656 559T661 338Q647 233 621 165T555 57T455 2T316 -14Q203 -14 137 19T50 131T47 352Q62 455 87 523T153 631T251 687T389 704ZM241 -31Q309 -59 383 -75T546 -106L478 -261Q384
-234 312 -199T187 -122L241 -31ZM386 561Q342 561 316 543T274 477T244 338Q231 253 233 208T257 146T321 129Q366 129 392 147T434 213T464 352Q477 437 475 482T451 544T386 561Z" />
<glyph unicode="R" glyph-name="R" horiz-adv-x="657" d="M385 700Q475 700 535 681T622 614T638 485Q632 443 616 409T569 353T482 325L481 319Q499 316 517 305T550 272T568 210L598 0H405L381 211Q379 242 369 251T333 260Q259 261 212 261T133 262T72 265L87
396H349Q384 396 404 403T434 431T451 487Q455 517 451 534T430 557T383 564Q280 564 212 563T119 559L116 690Q159 695 197 697T280 699T385 700ZM299 690L202 0H19L116 690H299Z" />
<glyph unicode="S" glyph-name="S" horiz-adv-x="592" d="M351 704Q407 703 469 696T588 671L572 550Q541 551 502 551T422 552T340 553Q319 553 304 552T278 546T261 532T252 508Q251 495 254 485T268 467T302 448L422 394Q478 369 506 340T543 273T546 184Q536
106 507 63T419 3T265 -14Q224 -14 155 -8T9 18L27 149Q85 148 131 147T210 145T256 144Q293 144 314 148T346 162T360 191Q363 207 360 216T347 232T319 247L190 306Q135 333 107 364T70 432T67 514Q74 571 94 608T149 665T234 695T351 704Z" />
<glyph unicode="T" glyph-name="T" horiz-adv-x="608" d="M453 690L356 0H169L266 690H453ZM651 690L631 547H48L68 690H651Z" />
<glyph unicode="U" glyph-name="U" horiz-adv-x="692" d="M694 690L635 277Q620 169 585 106T486 14T317 -14Q215 -14 152 15T63 110T52 284L110 690H298L239 277Q231 220 234 188T258 142T320 129Q363 129 388 143T426 191T449 284L506 690H694Z" />
<glyph unicode="V" glyph-name="V" horiz-adv-x="651" d="M705 690L437 47Q419 0 371 0H205Q180 0 164 15T145 54L57 690H246L284 225Q287 203 287 181T287 138H313Q317 160 323 181T338 222L508 690H705Z" />
<glyph unicode="W" glyph-name="W" horiz-adv-x="983" d="M1016 690L828 47Q822 24 805 12T761 0H598Q574 0 556 15T538 55L535 458Q536 484 536 507T538 556H519Q514 532 509 508T497 459L380 47Q374 25 356 13T313 0H147Q122 0 104 15T86 54L76 690H261L248
238Q247 214 245 187T242 129H261Q267 159 274 189T289 245L403 637Q417 690 471 690H609Q635 690 651 673T668 630L677 237Q678 211 678 183T676 129H696Q700 156 706 187T718 242L831 690H1016Z" />
<glyph unicode="X" glyph-name="X" horiz-adv-x="658" d="M256 690L360 336L161 0H-40L185 353L74 690H256ZM431 409L415 301H231L247 409H431ZM700 690L490 353L613 0H428L319 372L507 690H700Z" />
<glyph unicode="Y" glyph-name="Y" horiz-adv-x="630" d="M691 690L393 212H214L50 690H238L302 453Q309 425 310 402T312 357H325Q329 377 337 403T358 452L491 690H691ZM411 321L367 0H178L223 321H411Z" />
<glyph unicode="Z" glyph-name="Z" horiz-adv-x="590" d="M370 556L585 555L226 134L11 135L370 556ZM535 135L516 0H-7L11 135H535ZM604 690L585 555H80L99 690H604Z" />
<glyph unicode="[" glyph-name="bracketleft" horiz-adv-x="355" d="M395 768L379 656H315Q301 656 294 651T286 632L192 -32Q189 -53 209 -53H279L264 -165H100Q60 -165 35 -145T17 -71L123 681Q129 721 154 744T220 768H395Z" />
<glyph unicode="\" glyph-name="backslash" horiz-adv-x="564" d="M208 690L498 -76H362L72 690H208Z" />
<glyph unicode="]" glyph-name="bracketright" horiz-adv-x="355" d="M259 768Q299 768 323 741T341 674L235 -78Q230 -118 204 -141T138 -165H-36L-20 -53H44Q57 -53 64 -48T72 -29L166 635Q169 656 150 656H79L95 768H259Z" />
<glyph unicode="^" glyph-name="asciicircum" horiz-adv-x="481" d="M357 641L473 408L400 371L288 532H280L120 371L52 409L226 641H357Z" />
<glyph unicode="_" glyph-name="underscore" horiz-adv-x="448" d="M413 0L398 -109H-50L-35 0H413Z" />
<glyph unicode="`" glyph-name="grave" horiz-adv-x="374" d="M157 742L378 592L319 517L85 627L157 742Z" />
<glyph unicode="a" glyph-name="a" horiz-adv-x="604" d="M340 511Q366 511 400 508T470 501T534 491T580 481L446 387Q414 388 386 388T326 389Q302 389 284 385T254 368T232 330T216 264Q208 208 207 179T214 139T245 129Q268 131 294 148T344 195T389 259L419
206Q402 140 367 92T283 18T172 -12Q103 -16 68 15T26 108T31 261Q44 348 70 398T135 473T225 504T340 511ZM402 495L580 481L512 0H372V110L349 125L402 495Z" />
<glyph unicode="b" glyph-name="b" horiz-adv-x="606" d="M426 511Q486 511 522 484T569 398T566 246Q558 189 541 142T492 60T411 7T287 -12Q259 -12 221 -10T144 -2T70 10T13 28L157 124Q172 120 193 118T236 114T272 113Q298 114 316 120T346 142T367 186T382
259Q389 304 388 327T378 359T348 368Q313 368 280 349T209 299L184 359Q203 389 229 416T285 465T351 498T426 511ZM289 700L271 559Q267 523 259 489T235 418L251 409L194 20L13 28L107 700H289Z" />
<glyph unicode="c" glyph-name="c" horiz-adv-x="524" d="M304 511Q357 511 415 503T517 475L492 364Q441 365 399 365T327 365Q290 365 268 355T234 320T216 250Q209 201 214 176T238 142T293 133Q312 133 338 133T395 135T456 140L469 24Q422 4 367 -4T261 -12Q173
-12 116 15T37 101T27 256Q40 347 70 403T156 485T304 511Z" />
<glyph unicode="d" glyph-name="d" horiz-adv-x="607" d="M247 511Q323 511 390 501T496 467L476 396Q436 396 403 396T325 397Q297 397 278 392T248 373T229 333T215 264Q210 220 209 192T216 152T248 139Q284 141 315 161T379 209L413 133Q399 116 376 92T321
44T252 4T173 -12Q114 -12 78 17T30 106T30 261Q40 337 60 386T107 462T170 500T247 511ZM613 700L515 0H371L368 129L351 139L398 479L407 495Q407 520 408 545T414 599L432 700H613Z" />
<glyph unicode="e" glyph-name="e" horiz-adv-x="578" d="M323 511Q421 511 474 490T546 430T556 331Q550 286 526 261T458 223T349 205L90 184L102 275L307 296Q330 298 345 302T370 317T382 349Q385 366 380 375T362 387T322 390Q297 390 280 384T252 365T233
326T218 259Q209 203 213 175T238 138T296 129Q319 129 354 130T427 134T495 140L508 28Q475 14 436 5T357 -8T279 -12Q172 -12 114 18T37 108T27 254Q36 332 58 382T117 460T205 499T323 511Z" />
<glyph unicode="f" glyph-name="f" horiz-adv-x="413" d="M319 722Q341 722 373 721T437 717T493 709L466 598H382Q347 598 332 585T311 536L227 -38Q218 -108 177 -150T46 -193Q18 -193 -17 -190T-101 -180L-73 -69H-18Q18 -69 33 -56T54 -7L136 567Q147 638
188 680T319 722ZM432 497L416 384H27L41 492L128 497H432Z" />
<glyph unicode="g" glyph-name="g" horiz-adv-x="608" d="M407 495L585 481L527 72Q515 -15 487 -70T418 -154T325 -194T217 -206Q199 -206 162 -204T82 -196T7 -175L17 -75Q33 -75 49 -75T89 -75T150 -75Q221 -74 272 -57T344 4Q359 32 364 60T384 114L353 126L407
495ZM296 511Q356 511 412 507T514 495T584 481L450 387Q418 388 390 388T328 389Q298 389 279 383T249 364T230 326T217 264Q207 208 207 178T217 138T248 129Q272 132 297 149T348 194T393 259L423 207Q406 142 370 96T285 24T174 -4Q106 -7 71 23T27 114T32
261Q45 348 68 398T124 473T200 504T296 511Z" />
<glyph unicode="h" glyph-name="h" horiz-adv-x="610" d="M439 511Q513 511 547 474T572 369L520 0H339L384 318Q387 342 382 349T357 357Q328 357 298 343T223 292L196 374Q262 445 324 478T439 511ZM290 700L268 537Q261 486 247 439T220 364L241 354L192 0H10L108
700H290Z" />
<glyph unicode="i" glyph-name="i" horiz-adv-x="291" d="M264 497L195 0H14L83 497H264ZM238 721Q267 721 280 707T290 664L283 611Q277 561 223 561H151Q93 561 100 618L107 671Q112 721 166 721H238Z" />
<glyph unicode="j" glyph-name="j" horiz-adv-x="292" d="M267 497L201 39Q195 -10 173 -56T116 -137T34 -195L-66 -111Q-25 -72 -5 -35T21 46L86 497H267ZM238 721Q268 721 280 707T289 664L282 611Q276 561 221 561H151Q93 561 99 618L106 671Q112 721 168 721H238Z" />
<glyph unicode="k" glyph-name="k" horiz-adv-x="589" d="M290 700L251 413Q246 381 236 352T210 290Q212 260 214 221T214 153L192 0H10L108 700H290ZM580 497Q560 417 518 361T420 268T304 205T186 161L169 273Q221 293 268 326T348 404T393 497H580ZM377 280Q410
265 429 243T460 195L552 0H365L258 236L377 280Z" />
<glyph unicode="l" glyph-name="l" horiz-adv-x="345" d="M290 700L214 168Q210 145 219 137T257 129H299L309 8Q294 1 269 -3T219 -10T178 -13Q101 -13 61 24T28 127L109 700H290Z" />
<glyph unicode="m" glyph-name="m" horiz-adv-x="881" d="M221 497L226 390L243 377L191 0H10L80 497H221ZM413 511Q484 511 517 474T541 369L489 0H315L359 318Q363 341 356 349T331 357Q317 357 301 352T263 332T211 294L183 374Q246 446 299 478T413 511ZM715
511Q788 511 821 473T845 369L793 0H613L657 318Q660 342 652 349T629 357Q616 357 600 352T563 333T514 294L485 374Q548 446 601 478T715 511Z" />
<glyph unicode="n" glyph-name="n" horiz-adv-x="610" d="M446 511Q487 511 518 495T564 448T573 369L521 0H339L383 311Q387 338 380 348T350 357Q325 357 295 342T223 293L196 374Q250 438 316 474T446 511ZM222 497L225 365L241 352L192 0H10L79 497H222Z" />
<glyph unicode="o" glyph-name="o" horiz-adv-x="603" d="M322 511Q418 511 476 484T556 398T564 241Q551 147 519 92T426 12T271 -12Q176 -12 117 14T36 98T27 255Q40 350 72 405T165 486T322 511ZM319 384Q286 384 267 373T237 331T216 241Q209 189 211 162T229
124T277 114Q309 114 327 125T357 167T377 255Q384 308 382 335T365 373T319 384Z" />
<glyph unicode="p" glyph-name="p" horiz-adv-x="606" d="M427 509Q484 509 518 480T564 390T564 236Q553 158 533 109T483 33T415 -3T330 -14Q306 -14 275 -12T210 -4T147 9T98 30L119 101Q159 101 192 101T269 100Q299 100 318 105T348 125T365 165T378 233Q386
288 386 317T377 357T348 368Q330 368 307 358T260 329T218 288L185 359Q197 377 220 402T275 452T347 493T427 509ZM224 497L222 375L241 360L199 27L188 10Q189 -15 188 -40T181 -94L166 -185H-16L79 497H224Z" />
<glyph unicode="q" glyph-name="q" horiz-adv-x="606" d="M305 511Q335 511 373 509T451 501T525 489T582 470L438 374Q423 379 400 381T356 385T322 386Q296 385 278 379T248 360T228 321T214 255Q208 213 208 188T218 151T251 139Q275 139 295 149T337 174T380
207L414 135Q386 93 347 60T264 8T181 -12Q118 -12 80 14T29 99T29 253Q38 316 54 364T100 444T180 494T305 511ZM400 479L582 470L488 -185H307L324 -61Q329 -19 338 22T363 101L347 109L400 479Z" />
<glyph unicode="r" glyph-name="r" horiz-adv-x="440" d="M222 497L228 388L244 375L193 0H10L80 497H222ZM464 511L426 344H384Q353 344 317 335T223 308L216 411Q272 461 326 486T430 511H464Z" />
<glyph unicode="s" glyph-name="s" horiz-adv-x="538" d="M275 511Q313 511 358 508T445 501T516 489L501 382Q452 382 404 382T309 383Q273 383 253 382T224 377T214 364Q212 352 223 344T265 327L381 291Q421 279 447 259T484 209T491 138Q483 74 452 43T369
0T243 -11Q208 -11 171 -10T93 -4T2 9L18 117Q33 116 61 116T121 116T183 116Q237 116 265 118T304 125T316 141Q318 150 314 155T296 165T260 177L148 214Q104 229 79 252T45 307T41 378Q48 423 71 452T144 496T275 511Z" />
<glyph unicode="t" glyph-name="t" horiz-adv-x="425" d="M329 631L263 168Q260 145 267 137T299 129H362L371 9Q350 1 321 -3T264 -10T218 -13Q145 -13 106 25T77 129L150 631H329ZM438 497L423 384H27L41 492L137 497H438Z" />
<glyph unicode="u" glyph-name="u" horiz-adv-x="603" d="M259 497L213 179Q210 156 218 148T244 139Q273 139 301 154T372 205L402 124Q336 53 278 20T159 -14Q84 -14 50 23T25 128L76 497H259ZM580 497L511 0H369L367 134L351 146L400 497H580Z" />
<glyph unicode="v" glyph-name="v" horiz-adv-x="590" d="M591 497Q585 457 576 416T555 336T532 267Q511 206 489 160T453 92Q431 53 407 34T353 7T281 0H149Q129 0 114 13T97 46L35 497H233L247 113H258Q278 113 288 123T313 169Q324 194 335 225T358 300Q373
354 381 405T394 497H591Z" />
<glyph unicode="w" glyph-name="w" horiz-adv-x="908" d="M227 498L236 116H244Q258 116 268 130T287 175Q294 194 300 219T313 276Q319 301 323 327T333 384T343 452Q345 467 358 482T397 497H551Q572 497 585 484T600 452L613 116H622Q639 116 646 135T660 183Q670
214 677 242T692 303Q702 347 709 393T721 497H902Q897 459 890 421T875 346T856 274Q843 227 828 185T798 110Q782 71 760 47T703 12T609 0H537Q515 0 500 14T485 49L476 388H464Q462 376 459 353T450 303T439 245Q434 224 429 202T417 161T406 124Q389 66 363
40T302 7T223 0H126Q105 0 91 14T75 49L42 498H227Z" />
<glyph unicode="x" glyph-name="x" horiz-adv-x="586" d="M214 497L316 239L149 0H-39L146 254L44 497H214ZM388 309L373 203H191L205 309H388ZM603 497L430 254L541 0H369L260 270L419 497H603Z" />
<glyph unicode="y" glyph-name="y" horiz-adv-x="603" d="M605 497Q597 445 582 389T548 278T509 174T470 87T437 25Q389 -55 332 -106T209 -182T63 -206L49 -105Q85 -93 117 -82T179 -51T236 2T292 92Q322 150 343 210T381 340T411 497H605ZM231 497L255 129Q256
113 272 113H329L288 0H163Q139 0 123 15T102 51L33 497H231Z" />
<glyph unicode="z" glyph-name="z" horiz-adv-x="530" d="M290 378L505 377L224 119L8 120L290 378ZM472 120L456 0H-6L9 120H472ZM520 497L504 377H52L68 497H520Z" />
<glyph unicode="{" glyph-name="braceleft" horiz-adv-x="355" d="M383 767L370 657Q335 657 318 647T296 605L277 467Q272 426 260 397T222 351T148 326Q188 314 210 295T239 249T241 186L215 -2Q211 -28 223 -41T274 -54L269 -166Q180 -178 127 -162T54 -107T40
-19L72 211Q75 234 71 244T55 259T25 272L39 386Q60 393 72 398T91 416T103 456L127 628Q133 679 161 715T244 765T383 767Z" />
<glyph unicode="|" glyph-name="bar" horiz-adv-x="269" d="M267 781L133 -169H6L140 781H267Z" />
<glyph unicode="}" glyph-name="braceright" horiz-adv-x="355" d="M92 769Q181 782 234 765T308 710T322 622L297 449Q293 422 296 411T311 395T340 384L325 270Q306 262 292 256T270 239T259 204L227 -25Q220 -76 192 -111T109 -162T-30 -164L-17 -54Q20 -54
36 -46T56 -4L84 193Q90 228 102 254T141 298T217 330Q176 336 154 354T127 402T127 474L148 612Q151 637 139 647T87 657L92 769Z" />
<glyph unicode="~" glyph-name="asciitilde" horiz-adv-x="505" d="M136 370Q156 369 185 363T244 348T299 332T337 322Q365 317 374 330T387 368L462 361Q464 282 438 245T368 207Q347 208 318 214T259 229T204 245T166 255Q140 259 131 247T117 208L42 215Q41
271 53 305T88 354T136 370Z" />
<glyph unicode="&#xa0;" glyph-name="uni00A0" horiz-adv-x="213" />
<glyph unicode="&#xa1;" glyph-name="exclamdown" horiz-adv-x="299" d="M220 291L208 69L174 -180H-6L28 69L78 291H220ZM194 514Q225 514 241 498T254 448L247 403Q244 373 228 359T178 344H142Q74 344 82 410L87 454Q96 514 158 514H194Z" />
<glyph unicode="&#xa2;" glyph-name="cent" horiz-adv-x="531" d="M314 609Q367 609 424 601T525 574L500 463Q450 463 408 463T337 464Q302 464 281 454T249 418T231 349Q225 300 229 275T252 240T304 231Q323 231 349 232T405 234T465 239L477 123Q431 102 377
95T272 87Q187 87 131 113T52 199T42 355Q55 446 84 501T169 583T314 609ZM304 165L263 0H210L252 165H304ZM399 505L311 165H259L347 505H399ZM445 690L397 505H345L392 690H445Z" />
<glyph unicode="&#xa3;" glyph-name="sterling" horiz-adv-x="590" d="M364 703Q400 703 461 701T587 693L570 557Q556 557 544 557T516 557T469 558T387 558Q350 558 334 546T316 500L306 291Q304 248 291 220T258 173T211 135Q228 141 248 143T289 146H536L517
0H4L20 148Q75 173 97 212T122 298L135 515Q140 573 155 610T199 667T267 695T364 703ZM473 409L456 319H47L58 409H473Z" />
<glyph unicode="&#xa4;" glyph-name="currency" horiz-adv-x="576" d="M313 558Q374 558 419 530T486 453T500 345Q493 289 461 244T381 173T276 146Q217 146 172 174T104 251T89 359Q97 416 129 461T209 532T313 558ZM132 286L203 206L100 113L28 193L132 286ZM439
267L524 174L444 102L360 195L439 267ZM308 457Q258 457 228 429T191 354Q185 306 212 278T282 248Q313 248 337 260T378 297T398 352Q402 384 392 408T360 444T308 457ZM148 605L232 511L152 438L67 532L148 605ZM492 597L564 517L471 433L399 513L492 597Z" />
<glyph unicode="&#xa5;" glyph-name="yen" horiz-adv-x="685" d="M717 690L420 213L241 214L77 690H265L329 455Q335 427 337 404T339 359H352Q355 379 364 404T385 454L516 690H717ZM437 323L393 0H204L250 323H437ZM576 224L563 135H73L84 224H576ZM593 350L581
261H91L102 350H593Z" />
<glyph unicode="&#xa6;" glyph-name="brokenbar" horiz-adv-x="271" d="M268 781L212 381H84L141 781H268ZM191 231L135 -169H7L63 231H191Z" />
<glyph unicode="&#xa7;" glyph-name="section" horiz-adv-x="541" d="M68 346L194 340Q189 302 190 281T205 246T247 212L378 131Q391 123 406 111T435 81T454 34T455 -38Q446 -101 417 -133T338 -177T219 -189Q192 -189 151 -188T67 -183T-10 -176L10 -52Q43
-53 79 -54T156 -55Q188 -55 210 -53T245 -43T261 -17Q264 0 256 11T231 32L125 95Q71 124 50 159T34 241T68 346ZM313 704Q339 704 379 703T464 699T541 692L522 567Q504 568 488 568T443 569T359 569Q329 569 310 567T282 557T270 533Q268 518 276 506T308 478L407
420Q460 391 481 355T498 274T463 168L337 174Q343 212 342 233T327 269T284 303L154 389Q131 405 111 425T81 476T76 552Q84 618 118 650T203 693T313 704Z" />
<glyph unicode="&#xa8;" glyph-name="dieresis" horiz-adv-x="430" d="M221 714Q239 714 245 707T249 683L239 612Q237 596 230 589T206 582H137Q105 582 109 612L119 682Q122 699 130 706T156 714H221ZM406 714Q422 714 429 707T434 683L424 613Q421 596 414
589T390 582H321Q290 582 293 612L304 682Q306 700 314 707T338 714H406Z" />
<glyph unicode="&#xa9;" glyph-name="copyright" horiz-adv-x="798" d="M438 704Q548 704 626 659T743 531T768 338Q757 233 706 154T571 31T376 -14Q294 -14 229 11T119 83T55 198T44 352Q57 460 109 539T245 661T438 704ZM439 547Q479 547 509 543T570 531L556
436Q522 436 495 436T429 437Q404 437 389 431T366 405T354 347Q349 310 352 290T366 263T400 255Q420 255 443 255T489 256T530 259L538 164Q504 154 471 150T402 145Q325 145 282 164T224 230T218 353Q228 427 252 469T321 529T439 547ZM441 622Q354 622 288
588T181 489T132 338Q125 257 150 196T231 102T372 68Q457 68 523 101T631 199T681 352Q689 434 664 494T582 588T441 622Z" />
<glyph unicode="&#xaa;" glyph-name="ordfeminine" horiz-adv-x="448" d="M273 616Q326 616 371 610T438 595L339 530Q319 531 302 531T263 531Q245 531 232 526T209 505T194 452Q189 417 189 399T193 374T213 368Q233 370 258 393T301 448L321 413Q310 370 288
339T235 291T163 270Q112 268 87 288T56 349T58 451Q67 508 85 542T130 591T193 611T273 616ZM311 605L438 595L393 278H291L290 349L275 358L311 605Z" />
<glyph unicode="&#xab;" glyph-name="guillemotleft" horiz-adv-x="537" d="M415 468L510 406L407 251L480 90L385 28L244 231L247 270L415 468ZM193 468L288 406L185 251L258 90L163 28L22 231L25 270L193 468Z" />
<glyph unicode="&#xac;" glyph-name="logicalnot" horiz-adv-x="573" d="M530 374L510 240H39L59 374H530ZM530 374L496 137H352L386 366L530 374Z" />
<glyph unicode="&#xad;" glyph-name="uni00AD" horiz-adv-x="398" d="M348 311L333 201H39L55 311H348Z" />
<glyph unicode="&#xae;" glyph-name="registered" horiz-adv-x="508" d="M308 704Q369 704 416 676T487 596T501 474Q492 411 460 362T375 286T254 259Q191 259 144 288T73 369T59 489Q68 554 100 602T185 677T308 704ZM272 595L241 376H166L197 595H272ZM304
658Q219 658 169 608T108 476Q102 423 120 384T174 325T257 304Q313 304 354 327T421 391T452 488Q458 541 440 579T386 637T304 658ZM292 598Q328 598 352 592T388 571T395 529Q393 512 383 498T342 480V478Q354 476 362 469T374 440L383 376H305L300 441Q299
450 296 452T285 455Q255 455 238 455T210 455T188 456L189 501H288Q303 501 310 504T320 523Q323 536 319 541T298 546Q275 546 255 546T222 546T202 545L197 595Q221 597 240 597T292 598Z" />
<glyph unicode="&#xaf;" glyph-name="overscore" horiz-adv-x="400" d="M419 704L404 594H93L108 704H419Z" />
<glyph unicode="&#xb0;" glyph-name="degree" horiz-adv-x="339" d="M215 699Q254 699 286 681T335 632T348 558Q341 500 301 465T198 430Q158 430 126 448T78 498T67 572Q75 628 113 663T215 699ZM211 620Q185 620 171 605T154 567Q151 540 164 525T203 510Q227
510 243 524T261 563Q263 588 250 604T211 620Z" />
<glyph unicode="&#xb1;" glyph-name="plusminus" horiz-adv-x="562" d="M387 562L335 202H203L253 562H387ZM494 165L475 31H13L33 165H494ZM535 448L515 315H54L73 448H535Z" />
<glyph unicode="&#xb2;" glyph-name="uni00B2" horiz-adv-x="427" d="M276 779Q356 779 397 763T438 690Q438 661 426 638T395 594T352 555L243 470Q259 474 272 476T302 477L420 474L404 360H57L67 429Q69 446 75 459T95 485L191 562Q213 579 234 597T270 630T284
653Q284 661 274 663T245 665Q212 665 183 665T108 664L119 767Q168 775 210 777T276 779Z" />
<glyph unicode="&#xb3;" glyph-name="uni00B3" horiz-adv-x="410" d="M276 781Q353 781 390 766T427 709Q427 651 405 618T333 580V578Q373 573 391 556T410 507Q410 447 389 413T327 365T225 351Q182 351 138 354T54 363L72 462Q102 461 122 461T160 460T197
460Q236 460 252 467T269 505Q269 516 260 521T223 527L136 530L148 613L235 616Q265 617 275 625T286 655Q286 666 277 669T240 673Q204 673 170 673T111 673L121 769Q162 775 200 778T276 781Z" />
<glyph unicode="&#xb4;" glyph-name="acute" horiz-adv-x="374" d="M327 746L387 619L135 517L92 592L327 746Z" />
<glyph unicode="&#xb5;" glyph-name="uni00B5" horiz-adv-x="630" d="M276 497L231 184Q228 162 235 152T262 141Q282 141 306 155T351 206T383 311L360 95Q336 56 308 32T248 -3T180 -14Q130 -14 98 4T51 55T43 132L93 497H276ZM591 497L542 150Q538 126 541
115T561 103H602L596 13Q568 3 529 -4T453 -12Q407 -12 380 9T354 80L355 89V104L408 497H591ZM215 64L196 -67L156 -184H-2L54 209L215 64Z" />
<glyph unicode="&#xb6;" glyph-name="paragraph" horiz-adv-x="594" d="M384 702Q426 702 477 698T570 685L555 583Q531 588 500 590T439 593T388 594L247 200Q165 207 117 240T51 329T45 458Q58 549 95 602T203 678T384 702ZM412 685L286 -210H174L300 685H412ZM570
685L474 0H362L459 685H570Z" />
<glyph unicode="&#xb7;" glyph-name="middot" horiz-adv-x="255" d="M150 343Q181 343 197 327T210 277L203 232Q200 202 184 188T134 173H97Q28 173 36 239L42 284Q51 343 112 343H150Z" />
<glyph unicode="&#xb8;" glyph-name="cedilla" horiz-adv-x="256" d="M31 -35Q81 -29 118 -31T175 -50T187 -107Q179 -159 146 -191T63 -236T-46 -241L-26 -171Q9 -171 38 -161T75 -119Q77 -107 68 -104T15 -100L31 -35Z" />
<glyph unicode="&#xb9;" glyph-name="uni00B9" horiz-adv-x="315" d="M334 772L276 360H137L172 609Q174 622 177 635T185 664L83 646L79 733L195 772H334Z" />
<glyph unicode="&#xba;" glyph-name="ordmasculine" horiz-adv-x="436" d="M253 619Q354 619 394 577T421 435Q413 373 392 336T330 284T225 268Q125 268 84 309T55 449Q68 544 113 581T253 619ZM251 528Q232 528 221 521T203 493T190 435Q185 398 190 378T226
358Q254 358 266 377T286 449Q293 501 285 514T251 528Z" />
<glyph unicode="&#xbb;" glyph-name="guillemotright" horiz-adv-x="538" d="M110 29L15 91L117 246L45 406L140 469L280 265L278 226L110 29ZM332 29L237 91L339 246L267 406L362 469L502 265L500 226L332 29Z" />
<glyph unicode="&#xbc;" glyph-name="onequarter" horiz-adv-x="935" d="M734 690L237 0H120L617 690H734ZM323 690L264 276H126L161 530Q163 543 166 556T174 585L78 564L73 650L184 690H323ZM756 414L637 185Q633 177 636 174T645 170H889L879 93L829 82H532Q510
82 497 93T483 123T491 158L630 414H756ZM865 332L818 0H696L732 263L763 332H865Z" />
<glyph unicode="&#xbd;" glyph-name="onehalf" horiz-adv-x="930" d="M730 690L234 0H117L614 690H730ZM323 690L264 276H125L161 530Q163 543 165 556T173 585L77 564L73 650L183 690H323ZM718 421Q772 421 813 413T875 379T887 301Q883 277 866 252T810 198L691
111Q708 116 721 117T750 117L871 115L855 0H511L522 73Q524 91 528 104T544 128L641 205Q678 233 701 252T733 286Q742 299 735 305T711 311Q685 311 665 311T622 311T569 311L568 409Q618 418 659 419T718 421Z" />
<glyph unicode="&#xbe;" glyph-name="threequarters" horiz-adv-x="994" d="M810 690L314 0H198L693 690H810ZM245 698Q340 698 373 675T399 594Q396 573 387 552T359 516T307 497L304 494Q355 487 371 458T383 383Q379 349 361 323T306 282T202 267Q164 267 121
271T40 279L47 377Q80 376 103 376T143 376T180 375Q216 375 230 387T246 417Q247 428 245 434T236 443T214 446L117 448L128 531L223 530Q238 531 246 535T259 548T263 568Q264 580 258 585T229 591Q206 591 173 591T98 591L96 687Q136 693 175 695T245 698ZM819
416L699 187Q695 179 698 176T707 172H951L941 94L892 83H596Q574 83 561 95T547 124T554 159L693 416H819ZM927 333L880 2H758L795 263L825 333H927Z" />
<glyph unicode="&#xbf;" glyph-name="questiondown" horiz-adv-x="526" d="M348 289Q344 237 328 197T289 128T244 75T203 33T177 -5Q169 -28 180 -40T230 -53Q283 -53 317 -53T379 -53T440 -51L439 -173Q408 -178 383 -183T332 -191T271 -196T186 -198Q70 -198
19 -157T-23 -36Q-17 6 4 36T54 91T113 142T168 204T206 289H348ZM322 514Q353 514 370 498T382 447L376 403Q372 373 356 359T307 344H271Q202 344 210 410L216 455Q224 514 285 514H322Z" />
<glyph unicode="&#xc0;" glyph-name="Agrave" horiz-adv-x="665" d="M472 690Q494 690 511 675T532 638L630 0H442L392 478Q390 497 390 515T389 551H361Q357 536 352 517T339 480L150 0H-45L233 645Q241 667 258 678T299 690H472ZM514 301L498 162H138L155 301H514ZM270
947L491 797L432 722L198 832L270 947Z" />
<glyph unicode="&#xc1;" glyph-name="Aacute" horiz-adv-x="665" d="M472 690Q494 690 511 675T532 638L630 0H442L392 478Q390 497 390 515T389 551H361Q357 536 352 517T339 480L150 0H-45L233 645Q241 667 258 678T299 690H472ZM514 301L498 162H138L155 301H514ZM543
951L603 824L351 722L308 797L543 951Z" />
<glyph unicode="&#xc2;" glyph-name="Acircumflex" horiz-adv-x="665" d="M472 690Q494 690 511 675T532 638L630 0H442L392 478Q390 497 390 515T389 551H361Q357 536 352 517T339 480L150 0H-45L233 645Q241 667 258 678T299 690H472ZM514 301L498 162H138L155
301H514ZM467 920L596 782L546 722L406 818H398L237 722L194 786L344 920H467Z" />
<glyph unicode="&#xc3;" glyph-name="Atilde" horiz-adv-x="665" d="M472 690Q494 690 511 675T532 638L630 0H442L392 478Q390 497 390 515T389 551H361Q357 536 352 517T339 480L150 0H-45L233 645Q241 667 258 678T299 690H472ZM514 301L498 162H138L155 301H514ZM309
910Q329 910 350 904T392 890T431 874T464 864Q491 858 501 871T514 909L589 902Q592 822 565 786T495 749Q475 750 453 756T410 770T370 786T336 796Q311 801 301 789T287 750L212 757Q211 837 238 874T309 910Z" />
<glyph unicode="&#xc4;" glyph-name="Adieresis" horiz-adv-x="665" d="M472 690Q494 690 511 675T532 638L630 0H442L392 478Q390 497 390 515T389 551H361Q357 536 352 517T339 480L150 0H-45L233 645Q241 667 258 678T299 690H472ZM514 301L498 162H138L155
301H514ZM354 896Q372 896 378 889T382 865L372 794Q370 778 363 771T339 764H270Q238 764 242 794L252 864Q255 881 263 888T289 896H354ZM539 896Q555 896 562 889T567 865L557 795Q554 778 547 771T523 764H454Q423 764 426 794L437 864Q439 882 447 889T471
896H539Z" />
<glyph unicode="&#xc5;" glyph-name="Aring" horiz-adv-x="665" d="M472 690Q494 690 511 675T532 638L630 0H442L392 478Q390 497 390 515T389 551H361Q357 536 352 517T339 480L150 0H-45L233 645Q241 667 258 678T299 690H472ZM514 301L498 162H138L155 301H514ZM412
951Q462 951 496 922T531 844Q531 788 495 753T401 717Q352 717 317 747T282 824Q282 880 319 915T412 951ZM409 883Q386 883 372 869T358 831Q358 811 371 798T404 785Q428 785 441 799T455 838Q455 859 443 871T409 883Z" />
<glyph unicode="&#xc6;" glyph-name="AE" horiz-adv-x="946" d="M622 692Q721 692 800 691T963 682L940 550H705Q678 550 666 540T649 504L603 185Q601 163 609 152T644 140H882L878 7Q802 -1 719 -2T558 -3Q487 -3 451 40T425 152L476 515Q478 531 485 549T501
579H491Q484 569 474 553T455 524L141 0H-54L285 548Q309 588 336 615T400 659T491 684T622 692ZM490 311L472 171H128L148 311H490ZM471 415H885L871 296H453L471 415Z" />
<glyph unicode="&#xc7;" glyph-name="Ccedilla" horiz-adv-x="595" d="M389 702Q440 702 477 699T545 691T607 676L585 539Q550 541 520 541T458 542T380 543Q348 543 326 536T289 507T262 445T243 338Q232 262 233 221T254 163T317 147Q390 147 438 149T533 156L540
18Q487 2 435 -5T309 -12Q198 -12 134 23T49 138T47 352Q62 455 86 523T149 630T247 685T389 702ZM207 -56Q257 -50 294 -52T351 -71T363 -128Q355 -180 322 -212T239 -257T130 -262L150 -192Q185 -192 214 -182T251 -140Q253 -128 244 -125T191 -121L207 -56Z"
/>
<glyph unicode="&#xc8;" glyph-name="Egrave" horiz-adv-x="580" d="M260 693Q319 693 379 693T495 690T597 681L576 548H328Q301 548 289 538T272 502L228 187Q225 165 235 154T270 142H516L513 7Q466 1 411 0T298 -2T188 -3Q105 -3 67 46T38 173L90 548Q100
615 143 654T260 693ZM91 419H520L504 292H71L91 419ZM255 951L476 801L417 726L183 836L255 951Z" />
<glyph unicode="&#xc9;" glyph-name="Eacute" horiz-adv-x="580" d="M260 693Q319 693 379 693T495 690T597 681L576 548H328Q301 548 289 538T272 502L228 187Q225 165 235 154T270 142H516L513 7Q466 1 411 0T298 -2T188 -3Q105 -3 67 46T38 173L90 548Q100
615 143 654T260 693ZM91 419H520L504 292H71L91 419ZM528 955L588 828L336 726L293 801L528 955Z" />
<glyph unicode="&#xca;" glyph-name="Ecircumflex" horiz-adv-x="580" d="M260 693Q319 693 379 693T495 690T597 681L576 548H328Q301 548 289 538T272 502L228 187Q225 165 235 154T270 142H516L513 7Q466 1 411 0T298 -2T188 -3Q105 -3 67 46T38 173L90 548Q100
615 143 654T260 693ZM91 419H520L504 292H71L91 419ZM452 924L581 786L531 726L391 822H383L222 726L179 790L329 924H452Z" />
<glyph unicode="&#xcb;" glyph-name="Edieresis" horiz-adv-x="580" d="M260 693Q319 693 379 693T495 690T597 681L576 548H328Q301 548 289 538T272 502L228 187Q225 165 235 154T270 142H516L513 7Q466 1 411 0T298 -2T188 -3Q105 -3 67 46T38 173L90 548Q100
615 143 654T260 693ZM91 419H520L504 292H71L91 419ZM340 901Q358 901 364 894T368 870L358 799Q356 783 349 776T325 769H256Q224 769 228 799L238 869Q241 886 249 893T275 901H340ZM525 901Q541 901 548 894T553 870L543 800Q540 783 533 776T509 769H440Q409
769 412 799L423 869Q425 887 433 894T457 901H525Z" />
<glyph unicode="&#xcc;" glyph-name="Igrave" horiz-adv-x="308" d="M304 690L207 0H19L116 690H304ZM95 947L316 797L257 722L23 832L95 947Z" />
<glyph unicode="&#xcd;" glyph-name="Iacute" horiz-adv-x="308" d="M304 690L207 0H19L116 690H304ZM368 951L428 824L176 722L133 797L368 951Z" />
<glyph unicode="&#xce;" glyph-name="Icircumflex" horiz-adv-x="308" d="M304 690L207 0H19L116 690H304ZM292 920L421 782L371 722L231 818H223L62 722L19 786L169 920H292Z" />
<glyph unicode="&#xcf;" glyph-name="Idieresis" horiz-adv-x="308" d="M304 690L207 0H19L116 690H304ZM179 896Q197 896 203 889T207 865L197 794Q195 778 188 771T164 764H95Q63 764 67 794L77 864Q80 881 88 888T114 896H179ZM364 896Q380 896 387 889T392
865L382 795Q379 778 372 771T348 764H279Q248 764 251 794L262 864Q264 882 272 889T296 896H364Z" />
<glyph unicode="&#xd0;" glyph-name="Eth" horiz-adv-x="691" d="M366 408L354 320H12L25 408H366ZM384 700Q495 700 562 668T654 557T659 338Q644 233 620 165T556 59T456 6T310 -10Q228 -10 157 -7T19 0L109 135Q144 132 199 131T308 129Q341 129 366 137T409
170T440 238T462 352Q471 416 472 457T464 521T434 552T378 561Q344 561 311 561T246 561T188 561L116 690Q154 693 198 695T289 699T384 700ZM303 690L206 0H19L116 690H303Z" />
<glyph unicode="&#xd1;" glyph-name="Ntilde" horiz-adv-x="724" d="M720 690L632 62Q628 30 612 15T563 0H489Q459 0 446 15T421 59L291 353Q280 376 272 404T258 461H248Q249 431 248 402T242 341L193 0H19L107 628Q111 660 127 675T176 690H250Q279 690 292
674T317 631L444 350Q455 325 465 297T484 235H495Q493 267 493 293T498 348L547 690H720ZM339 910Q359 910 380 904T422 890T461 874T494 864Q521 858 531 871T544 909L619 902Q622 822 595 786T525 749Q505 750 483 756T440 770T400 786T366 796Q341 801 331
789T317 750L242 757Q241 837 268 874T339 910Z" />
<glyph unicode="&#xd2;" glyph-name="Ograve" horiz-adv-x="692" d="M389 704Q498 704 565 671T656 559T661 338Q647 233 621 165T555 57T455 2T316 -14Q203 -14 137 19T50 131T47 352Q62 455 87 523T153 631T251 687T389 704ZM386 561Q342 561 316 543T274 477T244
338Q231 253 233 208T257 146T321 129Q366 129 392 147T434 213T464 352Q477 437 475 482T451 544T386 561ZM284 947L505 797L446 722L212 832L284 947Z" />
<glyph unicode="&#xd3;" glyph-name="Oacute" horiz-adv-x="692" d="M389 704Q498 704 565 671T656 559T661 338Q647 233 621 165T555 57T455 2T316 -14Q203 -14 137 19T50 131T47 352Q62 455 87 523T153 631T251 687T389 704ZM386 561Q342 561 316 543T274 477T244
338Q231 253 233 208T257 146T321 129Q366 129 392 147T434 213T464 352Q477 437 475 482T451 544T386 561ZM557 951L617 824L365 722L322 797L557 951Z" />
<glyph unicode="&#xd4;" glyph-name="Ocircumflex" horiz-adv-x="692" d="M389 704Q498 704 565 671T656 559T661 338Q647 233 621 165T555 57T455 2T316 -14Q203 -14 137 19T50 131T47 352Q62 455 87 523T153 631T251 687T389 704ZM386 561Q342 561 316 543T274
477T244 338Q231 253 233 208T257 146T321 129Q366 129 392 147T434 213T464 352Q477 437 475 482T451 544T386 561ZM481 920L610 782L560 722L420 818H412L251 722L208 786L358 920H481Z" />
<glyph unicode="&#xd5;" glyph-name="Otilde" horiz-adv-x="692" d="M389 704Q498 704 565 671T656 559T661 338Q647 233 621 165T555 57T455 2T316 -14Q203 -14 137 19T50 131T47 352Q62 455 87 523T153 631T251 687T389 704ZM386 561Q342 561 316 543T274 477T244
338Q231 253 233 208T257 146T321 129Q366 129 392 147T434 213T464 352Q477 437 475 482T451 544T386 561ZM323 910Q343 910 364 904T406 890T445 874T478 864Q505 858 515 871T528 909L603 902Q606 822 579 786T509 749Q489 750 467 756T424 770T384 786T350
796Q325 801 315 789T301 750L226 757Q225 837 252 874T323 910Z" />
<glyph unicode="&#xd6;" glyph-name="Odieresis" horiz-adv-x="692" d="M389 704Q498 704 565 671T656 559T661 338Q647 233 621 165T555 57T455 2T316 -14Q203 -14 137 19T50 131T47 352Q62 455 87 523T153 631T251 687T389 704ZM386 561Q342 561 316 543T274
477T244 338Q231 253 233 208T257 146T321 129Q366 129 392 147T434 213T464 352Q477 437 475 482T451 544T386 561ZM369 896Q387 896 393 889T397 865L387 794Q385 778 378 771T354 764H285Q253 764 257 794L267 864Q270 881 278 888T304 896H369ZM554 896Q570
896 577 889T582 865L572 795Q569 778 562 771T538 764H469Q438 764 441 794L452 864Q454 882 462 889T486 896H554Z" />
<glyph unicode="&#xd7;" glyph-name="multiply" horiz-adv-x="526" d="M438 513L506 405L86 73L17 183L438 513ZM147 504L477 180L380 72L51 405L147 504Z" />
<glyph unicode="&#xd8;" glyph-name="Oslash" horiz-adv-x="692" d="M569 756L623 730L140 -69L86 -42L569 756ZM389 704Q498 704 565 671T656 559T661 338Q647 233 621 165T555 57T455 2T316 -14Q203 -14 137 19T50 131T47 352Q62 455 87 523T153 631T251 687T389
704ZM386 561Q342 561 316 543T274 477T244 338Q231 253 233 208T257 146T321 129Q366 129 392 147T434 213T464 352Q477 437 475 482T451 544T386 561Z" />
<glyph unicode="&#xd9;" glyph-name="Ugrave" horiz-adv-x="692" d="M694 690L635 277Q620 169 585 106T486 14T317 -14Q215 -14 152 15T63 110T52 284L110 690H298L239 277Q231 220 234 188T258 142T320 129Q363 129 388 143T426 191T449 284L506 690H694ZM284
947L505 797L446 722L212 832L284 947Z" />
<glyph unicode="&#xda;" glyph-name="Uacute" horiz-adv-x="692" d="M694 690L635 277Q620 169 585 106T486 14T317 -14Q215 -14 152 15T63 110T52 284L110 690H298L239 277Q231 220 234 188T258 142T320 129Q363 129 388 143T426 191T449 284L506 690H694ZM557
951L617 824L365 722L322 797L557 951Z" />
<glyph unicode="&#xdb;" glyph-name="Ucircumflex" horiz-adv-x="692" d="M694 690L635 277Q620 169 585 106T486 14T317 -14Q215 -14 152 15T63 110T52 284L110 690H298L239 277Q231 220 234 188T258 142T320 129Q363 129 388 143T426 191T449 284L506 690H694ZM481
920L610 782L560 722L420 818H412L251 722L208 786L358 920H481Z" />
<glyph unicode="&#xdc;" glyph-name="Udieresis" horiz-adv-x="692" d="M694 690L635 277Q620 169 585 106T486 14T317 -14Q215 -14 152 15T63 110T52 284L110 690H298L239 277Q231 220 234 188T258 142T320 129Q363 129 388 143T426 191T449 284L506 690H694ZM369
896Q387 896 393 889T397 865L387 794Q385 778 378 771T354 764H285Q253 764 257 794L267 864Q270 881 278 888T304 896H369ZM554 896Q570 896 577 889T582 865L572 795Q569 778 562 771T538 764H469Q438 764 441 794L452 864Q454 882 462 889T486 896H554Z" />
<glyph unicode="&#xdd;" glyph-name="Yacute" horiz-adv-x="630" d="M691 690L393 212H214L50 690H238L302 453Q309 425 310 402T312 357H325Q329 377 337 403T358 452L491 690H691ZM411 321L367 0H178L223 321H411ZM522 951L582 824L330 722L287 797L522 951Z" />
<glyph unicode="&#xde;" glyph-name="Thorn" horiz-adv-x="625" d="M365 576Q463 576 521 555T600 482T609 337Q597 249 568 201T486 134T346 115Q281 115 220 123T115 142T57 164L63 250Q127 250 196 250T329 250Q360 251 378 257T407 285T423 351Q428 386 425
405T407 432T362 440Q264 440 196 439T102 435L103 566Q146 571 182 573T261 575T365 576ZM304 690L207 0H19L116 690H304Z" />
<glyph unicode="&#xdf;" glyph-name="germandbls" horiz-adv-x="718" d="M409 737Q514 737 569 720T642 666T650 571Q648 554 642 536T623 497T585 454Q568 439 553 426T528 402T515 376Q514 360 525 347T560 313L618 266Q659 229 674 195T682 120Q675 74 653
45T587 3T468 -11Q433 -11 393 -8T298 0L314 114Q343 113 371 113T430 113Q452 113 468 115T493 125T502 149Q503 159 499 168T482 191T444 225L401 255Q369 282 354 309T343 376Q346 399 356 415T384 450T428 493Q448 512 459 524T477 548T484 573Q486 589 481
598T462 610T420 613Q381 613 359 607T326 584T311 536L230 -38Q223 -84 204 -119T146 -173T46 -193Q22 -193 -13 -190T-96 -180L-69 -69H-14Q20 -69 35 -56T55 -7L135 564Q143 615 161 648T212 701T293 729T409 737ZM213 497L197 384H26L40 492L127 497H213Z"
/>
<glyph unicode="&#xe0;" glyph-name="agrave" horiz-adv-x="604" d="M340 511Q366 511 400 508T470 501T534 491T580 481L446 387Q414 388 386 388T326 389Q302 389 284 385T254 368T232 330T216 264Q208 208 207 179T214 139T245 129Q268 131 294 148T344 195T389
259L419 206Q402 140 367 92T283 18T172 -12Q103 -16 68 15T26 108T31 261Q44 348 70 398T135 473T225 504T340 511ZM402 495L580 481L512 0H372V110L349 125L402 495ZM225 761L446 611L387 536L153 646L225 761Z" />
<glyph unicode="&#xe1;" glyph-name="aacute" horiz-adv-x="604" d="M340 511Q366 511 400 508T470 501T534 491T580 481L446 387Q414 388 386 388T326 389Q302 389 284 385T254 368T232 330T216 264Q208 208 207 179T214 139T245 129Q268 131 294 148T344 195T389
259L419 206Q402 140 367 92T283 18T172 -12Q103 -16 68 15T26 108T31 261Q44 348 70 398T135 473T225 504T340 511ZM402 495L580 481L512 0H372V110L349 125L402 495ZM498 765L558 638L306 536L263 611L498 765Z" />
<glyph unicode="&#xe2;" glyph-name="acircumflex" horiz-adv-x="604" d="M340 511Q366 511 400 508T470 501T534 491T580 481L446 387Q414 388 386 388T326 389Q302 389 284 385T254 368T232 330T216 264Q208 208 207 179T214 139T245 129Q268 131 294 148T344
195T389 259L419 206Q402 140 367 92T283 18T172 -12Q103 -16 68 15T26 108T31 261Q44 348 70 398T135 473T225 504T340 511ZM402 495L580 481L512 0H372V110L349 125L402 495ZM422 989L551 851L501 791L361 887H353L192 791L149 855L299 989H422Z" />
<glyph unicode="&#xe3;" glyph-name="atilde" horiz-adv-x="604" d="M340 511Q366 511 400 508T470 501T534 491T580 481L446 387Q414 388 386 388T326 389Q302 389 284 385T254 368T232 330T216 264Q208 208 207 179T214 139T245 129Q268 131 294 148T344 195T389
259L419 206Q402 140 367 92T283 18T172 -12Q103 -16 68 15T26 108T31 261Q44 348 70 398T135 473T225 504T340 511ZM402 495L580 481L512 0H372V110L349 125L402 495ZM264 724Q284 724 305 718T347 704T386 688T419 678Q446 672 456 685T469 723L544 716Q547 636
520 600T450 563Q430 564 408 570T365 584T325 600T291 610Q266 615 256 603T242 564L167 571Q166 651 193 688T264 724Z" />
<glyph unicode="&#xe4;" glyph-name="adieresis" horiz-adv-x="604" d="M340 511Q366 511 400 508T470 501T534 491T580 481L446 387Q414 388 386 388T326 389Q302 389 284 385T254 368T232 330T216 264Q208 208 207 179T214 139T245 129Q268 131 294 148T344
195T389 259L419 206Q402 140 367 92T283 18T172 -12Q103 -16 68 15T26 108T31 261Q44 348 70 398T135 473T225 504T340 511ZM402 495L580 481L512 0H372V110L349 125L402 495ZM309 966Q327 966 333 959T337 935L327 864Q325 848 318 841T294 834H225Q193 834 197
864L207 934Q210 951 218 958T244 966H309ZM494 966Q510 966 517 959T522 935L512 865Q509 848 502 841T478 834H409Q378 834 381 864L392 934Q394 952 402 959T426 966H494Z" />
<glyph unicode="&#xe5;" glyph-name="aring" horiz-adv-x="604" d="M340 511Q366 511 400 508T470 501T534 491T580 481L446 387Q414 388 386 388T326 389Q302 389 284 385T254 368T232 330T216 264Q208 208 207 179T214 139T245 129Q268 131 294 148T344 195T389
259L419 206Q402 140 367 92T283 18T172 -12Q103 -16 68 15T26 108T31 261Q44 348 70 398T135 473T225 504T340 511ZM402 495L580 481L512 0H372V110L349 125L402 495ZM368 765Q418 765 452 736T487 658Q487 602 451 567T357 531Q308 531 273 561T238 638Q238 694
275 729T368 765ZM365 697Q342 697 328 683T314 645Q314 625 327 612T360 599Q384 599 397 613T411 652Q411 673 399 685T365 697Z" />
<glyph unicode="&#xe6;" glyph-name="ae" horiz-adv-x="906" d="M302 511Q361 511 415 507T512 495T580 480L444 386Q423 387 404 387T366 388T324 389Q299 389 281 385T251 368T230 330T216 264Q208 208 207 179T214 139T245 129Q267 131 292 148T342 195T384
259L415 207Q397 140 363 92T281 18T170 -12Q102 -16 68 15T26 109T31 261Q43 348 66 398T122 473T201 504T302 511ZM654 511Q750 511 803 490T875 430T885 331Q878 286 855 261T788 223T680 205L424 184L437 275L637 296Q659 298 674 302T699 317T711 349Q713
366 708 375T690 387T653 390Q626 390 608 384T579 365T561 326T546 259Q538 203 542 175T567 138T628 129Q649 129 683 130T756 134T823 140L834 28Q802 14 764 5T687 -8T610 -12Q504 -12 447 18T371 108T361 254Q369 332 391 382T451 460T538 499T654 511Z" />
<glyph unicode="&#xe7;" glyph-name="ccedilla" horiz-adv-x="524" d="M304 511Q357 511 415 503T517 475L492 364Q441 365 399 365T327 365Q290 365 268 355T234 320T216 250Q209 201 214 176T238 142T293 133Q312 133 338 133T395 135T456 140L469 24Q422 4
367 -4T261 -12Q173 -12 116 15T37 101T27 256Q40 347 70 403T156 485T304 511ZM164 -47Q214 -41 251 -43T308 -62T320 -119Q312 -171 279 -203T196 -248T87 -253L107 -183Q142 -183 171 -173T208 -131Q210 -119 201 -116T148 -112L164 -47Z" />
<glyph unicode="&#xe8;" glyph-name="egrave" horiz-adv-x="578" d="M323 511Q421 511 474 490T546 430T556 331Q550 286 526 261T458 223T349 205L90 184L102 275L307 296Q330 298 345 302T370 317T382 349Q385 366 380 375T362 387T322 390Q297 390 280 384T252
365T233 326T218 259Q209 203 213 175T238 138T296 129Q319 129 354 130T427 134T495 140L508 28Q475 14 436 5T357 -8T279 -12Q172 -12 114 18T37 108T27 254Q36 332 58 382T117 460T205 499T323 511ZM217 761L438 611L379 536L145 646L217 761Z" />
<glyph unicode="&#xe9;" glyph-name="eacute" horiz-adv-x="578" d="M323 511Q421 511 474 490T546 430T556 331Q550 286 526 261T458 223T349 205L90 184L102 275L307 296Q330 298 345 302T370 317T382 349Q385 366 380 375T362 387T322 390Q297 390 280 384T252
365T233 326T218 259Q209 203 213 175T238 138T296 129Q319 129 354 130T427 134T495 140L508 28Q475 14 436 5T357 -8T279 -12Q172 -12 114 18T37 108T27 254Q36 332 58 382T117 460T205 499T323 511ZM490 765L550 638L298 536L255 611L490 765Z" />
<glyph unicode="&#xea;" glyph-name="ecircumflex" horiz-adv-x="578" d="M323 511Q421 511 474 490T546 430T556 331Q550 286 526 261T458 223T349 205L90 184L102 275L307 296Q330 298 345 302T370 317T382 349Q385 366 380 375T362 387T322 390Q297 390 280
384T252 365T233 326T218 259Q209 203 213 175T238 138T296 129Q319 129 354 130T427 134T495 140L508 28Q475 14 436 5T357 -8T279 -12Q172 -12 114 18T37 108T27 254Q36 332 58 382T117 460T205 499T323 511ZM414 989L543 851L493 791L353 887H345L184 791L141
855L291 989H414Z" />
<glyph unicode="&#xeb;" glyph-name="edieresis" horiz-adv-x="578" d="M323 511Q421 511 474 490T546 430T556 331Q550 286 526 261T458 223T349 205L90 184L102 275L307 296Q330 298 345 302T370 317T382 349Q385 366 380 375T362 387T322 390Q297 390 280 384T252
365T233 326T218 259Q209 203 213 175T238 138T296 129Q319 129 354 130T427 134T495 140L508 28Q475 14 436 5T357 -8T279 -12Q172 -12 114 18T37 108T27 254Q36 332 58 382T117 460T205 499T323 511ZM301 966Q319 966 325 959T329 935L319 864Q317 848 310 841T286
834H217Q185 834 189 864L199 934Q202 951 210 958T236 966H301ZM486 966Q502 966 509 959T514 935L504 865Q501 848 494 841T470 834H401Q370 834 373 864L384 934Q386 952 394 959T418 966H486Z" />
<glyph unicode="&#xec;" glyph-name="igrave" horiz-adv-x="292" d="M266 497L197 0H14L84 497H266ZM315 761L536 611L477 536L243 646L315 761Z" />
<glyph unicode="&#xed;" glyph-name="iacute" horiz-adv-x="292" d="M266 497L197 0H14L84 497H266ZM332 765L392 638L140 536L97 611L332 765Z" />
<glyph unicode="&#xee;" glyph-name="icircumflex" horiz-adv-x="292" d="M266 497L197 0H14L84 497H266ZM512 989L641 851L591 791L451 887H443L282 791L239 855L389 989H512Z" />
<glyph unicode="&#xef;" glyph-name="idieresis" horiz-adv-x="292" d="M266 497L197 0H14L84 497H266ZM399 966Q417 966 423 959T427 935L417 864Q415 848 408 841T384 834H315Q283 834 287 864L297 934Q300 951 308 958T334 966H399ZM584 966Q600 966 607 959T612
935L602 865Q599 848 592 841T568 834H499Q468 834 471 864L482 934Q484 952 492 959T516 966H584Z" />
<glyph unicode="&#xf0;" glyph-name="eth" horiz-adv-x="593" d="M194 698Q276 703 340 691T450 648T523 567T558 446T554 282Q545 202 523 146T464 54T376 3T254 -14Q173 -14 118 11T38 88T24 222Q40 342 98 397T260 452Q283 452 310 448T362 431T408 393T440
327L431 259Q416 283 398 299T357 325T309 334Q277 334 259 322T230 284T214 219Q205 159 215 137T266 114Q299 114 317 131T346 189T366 296Q376 365 376 415T367 500T333 554T270 580T173 583L194 698ZM483 729L526 673L271 475L229 530L483 729Z" />
<glyph unicode="&#xf1;" glyph-name="ntilde" horiz-adv-x="610" d="M446 511Q487 511 518 495T564 448T573 369L521 0H339L383 311Q387 338 380 348T350 357Q325 357 295 342T223 293L196 374Q250 438 316 474T446 511ZM222 497L225 365L241 352L192 0H10L79
497H222ZM259 724Q279 724 300 718T342 704T381 688T414 678Q441 672 451 685T464 723L539 716Q542 636 515 600T445 563Q425 564 403 570T360 584T320 600T286 610Q261 615 251 603T237 564L162 571Q161 651 188 688T259 724Z" />
<glyph unicode="&#xf2;" glyph-name="ograve" horiz-adv-x="603" d="M322 511Q418 511 476 484T556 398T564 241Q551 147 519 92T426 12T271 -12Q176 -12 117 14T36 98T27 255Q40 350 72 405T165 486T322 511ZM319 384Q286 384 267 373T237 331T216 241Q209 189
211 162T229 124T277 114Q309 114 327 125T357 167T377 255Q384 308 382 335T365 373T319 384ZM217 761L438 611L379 536L145 646L217 761Z" />
<glyph unicode="&#xf3;" glyph-name="oacute" horiz-adv-x="603" d="M322 511Q418 511 476 484T556 398T564 241Q551 147 519 92T426 12T271 -12Q176 -12 117 14T36 98T27 255Q40 350 72 405T165 486T322 511ZM319 384Q286 384 267 373T237 331T216 241Q209 189
211 162T229 124T277 114Q309 114 327 125T357 167T377 255Q384 308 382 335T365 373T319 384ZM490 765L550 638L298 536L255 611L490 765Z" />
<glyph unicode="&#xf4;" glyph-name="ocircumflex" horiz-adv-x="603" d="M322 511Q418 511 476 484T556 398T564 241Q551 147 519 92T426 12T271 -12Q176 -12 117 14T36 98T27 255Q40 350 72 405T165 486T322 511ZM319 384Q286 384 267 373T237 331T216 241Q209
189 211 162T229 124T277 114Q309 114 327 125T357 167T377 255Q384 308 382 335T365 373T319 384ZM414 989L543 851L493 791L353 887H345L184 791L141 855L291 989H414Z" />
<glyph unicode="&#xf5;" glyph-name="otilde" horiz-adv-x="603" d="M322 511Q418 511 476 484T556 398T564 241Q551 147 519 92T426 12T271 -12Q176 -12 117 14T36 98T27 255Q40 350 72 405T165 486T322 511ZM319 384Q286 384 267 373T237 331T216 241Q209 189
211 162T229 124T277 114Q309 114 327 125T357 167T377 255Q384 308 382 335T365 373T319 384ZM256 724Q276 724 297 718T339 704T378 688T411 678Q438 672 448 685T461 723L536 716Q539 636 512 600T442 563Q422 564 400 570T357 584T317 600T283 610Q258 615
248 603T234 564L159 571Q158 651 185 688T256 724Z" />
<glyph unicode="&#xf6;" glyph-name="odieresis" horiz-adv-x="603" d="M322 511Q418 511 476 484T556 398T564 241Q551 147 519 92T426 12T271 -12Q176 -12 117 14T36 98T27 255Q40 350 72 405T165 486T322 511ZM319 384Q286 384 267 373T237 331T216 241Q209
189 211 162T229 124T277 114Q309 114 327 125T357 167T377 255Q384 308 382 335T365 373T319 384ZM301 966Q319 966 325 959T329 935L319 864Q317 848 310 841T286 834H217Q185 834 189 864L199 934Q202 951 210 958T236 966H301ZM486 966Q502 966 509 959T514
935L504 865Q501 848 494 841T470 834H401Q370 834 373 864L384 934Q386 952 394 959T418 966H486Z" />
<glyph unicode="&#xf7;" glyph-name="divide" horiz-adv-x="537" d="M513 359L493 226H24L44 359H513ZM266 176Q307 176 322 161T332 104L329 82Q324 42 307 28T250 13H209Q168 13 153 29T144 86L147 107Q152 148 171 162T230 176H266ZM324 569Q364 569 379 554T389
498L386 476Q381 436 364 421T307 406H266Q225 406 210 422T201 478L204 500Q210 541 228 555T287 569H324Z" />
<glyph unicode="&#xf8;" glyph-name="oslash" horiz-adv-x="603" d="M478 589L523 567L127 -89L82 -67L478 589ZM322 511Q418 511 476 484T556 398T564 241Q551 147 519 92T426 12T271 -12Q176 -12 117 14T36 98T27 255Q40 350 72 405T165 486T322 511ZM319 384Q286
384 267 373T237 331T216 241Q209 189 211 162T229 124T277 114Q309 114 327 125T357 167T377 255Q384 308 382 335T365 373T319 384Z" />
<glyph unicode="&#xf9;" glyph-name="ugrave" horiz-adv-x="603" d="M259 497L213 179Q210 156 218 148T244 139Q273 139 301 154T372 205L402 124Q336 53 278 20T159 -14Q84 -14 50 23T25 128L76 497H259ZM580 497L511 0H369L367 134L351 146L400 497H580ZM215
770L436 620L377 545L143 655L215 770Z" />
<glyph unicode="&#xfa;" glyph-name="uacute" horiz-adv-x="603" d="M259 497L213 179Q210 156 218 148T244 139Q273 139 301 154T372 205L402 124Q336 53 278 20T159 -14Q84 -14 50 23T25 128L76 497H259ZM580 497L511 0H369L367 134L351 146L400 497H580ZM488
774L548 647L296 545L253 620L488 774Z" />
<glyph unicode="&#xfb;" glyph-name="ucircumflex" horiz-adv-x="603" d="M259 497L213 179Q210 156 218 148T244 139Q273 139 301 154T372 205L402 124Q336 53 278 20T159 -14Q84 -14 50 23T25 128L76 497H259ZM580 497L511 0H369L367 134L351 146L400 497H580ZM412
743L541 605L491 545L351 641H343L182 545L139 609L289 743H412Z" />
<glyph unicode="&#xfc;" glyph-name="udieresis" horiz-adv-x="603" d="M259 497L213 179Q210 156 218 148T244 139Q273 139 301 154T372 205L402 124Q336 53 278 20T159 -14Q84 -14 50 23T25 128L76 497H259ZM580 497L511 0H369L367 134L351 146L400 497H580ZM300
719Q318 719 324 712T328 688L318 617Q316 601 309 594T285 587H216Q184 587 188 617L198 687Q201 704 209 711T235 719H300ZM485 719Q501 719 508 712T513 688L503 618Q500 601 493 594T469 587H400Q369 587 372 617L383 687Q385 705 393 712T417 719H485Z" />
<glyph unicode="&#xfd;" glyph-name="yacute" horiz-adv-x="603" d="M605 497Q597 445 582 389T548 278T509 174T470 87T437 25Q389 -55 332 -106T209 -182T63 -206L49 -105Q85 -93 117 -82T179 -51T236 2T292 92Q322 150 343 210T381 340T411 497H605ZM231 497L255
129Q256 113 272 113H329L288 0H163Q139 0 123 15T102 51L33 497H231ZM477 765L537 638L285 536L242 611L477 765Z" />
<glyph unicode="&#xfe;" glyph-name="thorn" horiz-adv-x="606" d="M419 509Q483 509 519 480T565 390T565 236Q556 165 537 117T489 40T424 -1T347 -14Q273 -14 206 -4T100 30L120 102Q159 101 193 101T269 101Q298 101 316 106T346 124T365 164T378 233Q385
282 386 311T379 354T346 368Q317 368 294 352T251 309T212 250L186 325Q198 369 230 411T311 481T419 509ZM290 700L273 577Q269 544 263 509T248 442L251 433L203 69L194 53Q192 22 190 -13T181 -82L166 -185H-15L108 700H290Z" />
<glyph unicode="&#xff;" glyph-name="ydieresis" horiz-adv-x="603" d="M605 497Q597 445 582 389T548 278T509 174T470 87T437 25Q389 -55 332 -106T209 -182T63 -206L49 -105Q85 -93 117 -82T179 -51T236 2T292 92Q322 150 343 210T381 340T411 497H605ZM231
497L255 129Q256 113 272 113H329L288 0H163Q139 0 123 15T102 51L33 497H231ZM289 966Q307 966 313 959T317 935L307 864Q305 848 298 841T274 834H205Q173 834 177 864L187 934Q190 951 198 958T224 966H289ZM474 966Q490 966 497 959T502 935L492 865Q489 848
482 841T458 834H389Q358 834 361 864L372 934Q374 952 382 959T406 966H474Z" />
<glyph unicode="&#x2013;" glyph-name="endash" horiz-adv-x="545" d="M497 311L481 201H39L55 311H497Z" />
<glyph unicode="&#x2014;" glyph-name="emdash" horiz-adv-x="839" d="M790 311L774 201H39L55 311H790Z" />
<glyph unicode="&#x2018;" glyph-name="quoteleft" horiz-adv-x="221" d="M117 417Q87 417 75 430T66 477L74 535Q78 566 88 599T114 662T147 716L214 690Q202 660 194 630T177 568Q203 569 212 556T217 518L211 473Q206 440 192 429T147 417H117Z" />
<glyph unicode="&#x2019;" glyph-name="quoteright" horiz-adv-x="220" d="M178 704Q208 704 220 690T229 643L221 585Q217 555 206 522T181 458T148 405L81 430Q93 461 101 491T118 552Q92 551 83 564T77 603L84 648Q88 680 103 692T148 704H178Z" />
<glyph unicode="&#x201a;" glyph-name="quotesinglbase" horiz-adv-x="231" d="M108 143Q139 143 151 130T159 83L151 24Q147 -6 137 -39T111 -102T78 -156L11 -130Q24 -100 32 -70T48 -8Q23 -9 14 3T8 42L14 87Q19 120 33 131T79 143H108Z" />
<glyph unicode="&#x201c;" glyph-name="quotedblleft" horiz-adv-x="409" d="M117 417Q87 417 75 430T66 477L74 535Q78 566 88 599T114 662T147 716L214 690Q202 660 194 630T177 568Q203 569 212 556T217 518L211 473Q206 440 192 429T147 417H117ZM305 417Q275
417 263 430T254 477L262 535Q266 566 277 599T303 662T335 716L402 690Q390 660 382 630T365 568Q391 569 400 556T406 518L399 473Q395 440 380 429T335 417H305Z" />
<glyph unicode="&#x201d;" glyph-name="quotedblright" horiz-adv-x="408" d="M366 704Q396 704 408 690T417 643L409 585Q405 555 395 522T369 458T336 405L269 430Q282 461 290 491T306 552Q281 551 272 564T266 603L272 648Q277 680 291 692T336 704H366ZM178
704Q208 704 220 690T229 643L221 585Q217 555 206 522T181 458T148 405L81 430Q93 461 101 491T118 552Q92 551 83 564T77 603L84 648Q88 680 103 692T148 704H178Z" />
<glyph unicode="&#x201e;" glyph-name="quotedblbase" horiz-adv-x="419" d="M297 143Q327 143 339 130T348 83L340 24Q336 -6 325 -39T299 -102T267 -156L200 -130Q212 -100 220 -70T237 -8Q211 -10 202 3T196 42L203 87Q207 119 222 131T267 143H297ZM108 143Q139
143 151 130T159 83L151 24Q147 -6 137 -39T111 -102T78 -156L12 -130Q24 -100 32 -70T48 -8Q23 -10 14 3T8 42L14 87Q19 119 33 131T79 143H108Z" />
<glyph unicode="&#x2022;" glyph-name="bullet" horiz-adv-x="375" d="M211 392Q273 392 295 366T310 275L307 259Q301 214 288 189T251 153T183 143H160Q96 143 73 170T59 267L62 283Q68 325 80 349T119 382T190 392H211Z" />
<glyph unicode="&#x2039;" glyph-name="guilsinglleft" horiz-adv-x="315" d="M193 468L288 406L185 251L258 90L163 28L22 231L25 270L193 468Z" />
<glyph unicode="&#x203a;" glyph-name="guilsinglright" horiz-adv-x="314" d="M139 468L279 265L277 226L109 28L14 90L117 245L44 406L139 468Z" />
</font>
</defs>
</svg>
